<?xml version="1.0" encoding="UTF-8"?>
<svg width="412px" height="301px" viewBox="0 0 412 301" version="1.1" xmlns="http://www.w3.org/2000/svg" xmlns:xlink="http://www.w3.org/1999/xlink">
    <!-- Generator: Sketch 52.5 (67469) - http://www.bohemiancoding.com/sketch -->
    <title>orignal</title>
    <desc>Created with Sketch.</desc>
    <g id="Page-1" stroke="none" stroke-width="1" fill="none" fill-rule="evenodd">
        <g id="orignal" transform="translate(0.000000, -1.000000)">
            <g id="Group-13" transform="translate(60.769065, 0.962891)">
                <path d="M13.540875,7.801125 C13.540875,7.929375 13.5195,8.079 13.47675,8.20725 L8.752875,20.070375 C8.475,20.754375 7.791,21.20325 7.085625,21.20325 L6.97875,21.20325 C6.252,21.20325 5.568,20.754375 5.3115,20.070375 L0.587625,8.20725 C0.5235,8.079 0.502125,7.95075 0.502125,7.801125 C0.502125,7.288125 0.972375,6.689625 1.656375,6.689625 C2.083875,6.689625 2.511375,6.946125 2.682375,7.395 L7.0215,18.7665 L11.382,7.395 C11.531625,6.9675 11.93775,6.689625 12.408,6.689625 C13.070625,6.689625 13.540875,7.224 13.540875,7.801125 Z M16.618875,6.92475 C17.302875,6.92475 17.83725,7.4805 17.83725,8.1645 C17.83725,8.827125 17.302875,9.382875 16.618875,9.382875 C15.95625,9.382875 15.4005,8.827125 15.4005,8.1645 C15.4005,7.4805 15.95625,6.92475 16.618875,6.92475 Z M17.58075,20.26275 C17.58075,20.77575 17.15325,21.20325 16.618875,21.20325 C16.105875,21.20325 15.678375,20.77575 15.678375,20.26275 L15.678375,11.54175 C15.678375,11.050125 16.105875,10.622625 16.661625,10.622625 C17.15325,10.622625 17.58075,11.050125 17.58075,11.54175 L17.58075,20.26275 Z M28.95225,20.26275 C28.95225,20.77575 28.52475,21.20325 27.990375,21.20325 L27.92625,21.20325 C27.5415,21.20325 27.049875,20.882625 27.049875,20.26275 L27.049875,19.92075 C26.21625,20.839875 25.040625,21.3315 23.65125,21.3315 C21.94125,21.3315 20.06025,20.17725 20.06025,17.9115 C20.06025,15.581625 21.94125,14.53425 23.65125,14.53425 C25.062,14.53425 26.237625,14.983125 27.049875,15.90225 L27.049875,14.170875 C27.049875,12.867 25.981125,12.0975 24.527625,12.0975 C23.56575,12.0975 22.71075,12.39675 21.94125,12.99525 C21.791625,13.102125 21.620625,13.16625 21.471,13.16625 C21.08625,13.16625 20.680125,12.867 20.680125,12.418125 C20.680125,12.247125 20.74425,12.076125 20.8725,11.9265 C21.85575,10.94325 23.416125,10.494375 24.8055,10.494375 C27.0285,10.494375 28.95225,11.45625 28.95225,14.085375 L28.95225,20.26275 Z M27.049875,18.80925 L27.049875,17.0565 C26.47275,16.265625 25.44675,15.8595 24.378,15.8595 C22.988625,15.8595 21.984,16.7145 21.984,17.95425 C21.984,19.15125 22.988625,19.984875 24.378,19.984875 C25.44675,19.984875 26.47275,19.600125 27.049875,18.80925 Z M32.949375,6.92475 C33.633375,6.92475 34.16775,7.4805 34.16775,8.1645 C34.16775,8.827125 33.612,9.382875 32.949375,9.382875 C32.28675,9.382875 31.731,8.827125 31.731,8.1645 C31.731,7.4805 32.28675,6.92475 32.949375,6.92475 Z M33.91125,21.88725 C33.91125,24.003375 32.778375,25.2645 30.683625,25.2645 C29.55075,25.2645 28.417875,24.943875 28.417875,24.174375 C28.417875,23.746875 28.802625,23.404875 29.20875,23.404875 C29.55075,23.404875 29.871375,23.704125 30.40575,23.704125 C31.324875,23.704125 32.008875,23.148375 32.008875,21.88725 L32.008875,11.54175 C32.008875,11.050125 32.436375,10.622625 32.992125,10.622625 C33.48375,10.622625 33.91125,11.050125 33.91125,11.54175 L33.91125,21.88725 Z M46.5225,15.56025 C46.5225,16.07325 46.073625,16.522125 45.53925,16.522125 L38.35725,16.522125 C38.506875,18.29625 39.789375,19.7925 41.884125,19.7925 C42.7605,19.7925 43.701,19.49325 44.449125,18.9375 C44.577375,18.873375 44.727,18.830625 44.876625,18.830625 C45.218625,18.830625 45.646125,19.129875 45.646125,19.600125 C45.646125,20.754375 42.995625,21.3315 41.69175,21.3315 C38.61375,21.3315 36.369375,19.15125 36.369375,15.90225 C36.369375,12.90975 38.52825,10.494375 41.52075,10.494375 C44.021625,10.494375 45.731625,12.05475 46.330125,14.36325 C46.415625,14.70525 46.5225,15.154125 46.5225,15.56025 Z M44.68425,15.1755 C44.6415,13.786125 43.701,12.033375 41.499375,12.033375 C39.447375,12.033375 38.44275,13.743375 38.35725,15.1755 L44.68425,15.1755 Z M56.526,18.168 C56.526,19.92075 55.0725,21.3315 52.3365,21.3315 C50.92575,21.3315 49.365375,20.925375 48.424875,19.984875 C48.27525,19.856625 48.18975,19.685625 48.18975,19.471875 C48.18975,19.023 48.5745,18.681 49.023375,18.681 C49.21575,18.681 49.365375,18.72375 49.515,18.830625 C50.2845,19.386375 51.35325,19.813875 52.422,19.813875 C53.896875,19.813875 54.666375,19.15125 54.666375,18.21075 C54.666375,15.923625 48.36075,17.419875 48.36075,13.529625 C48.36075,11.905125 49.7715,10.494375 52.29375,10.494375 C53.768625,10.494375 55.0725,10.94325 55.88475,11.734125 C56.013,11.862375 56.077125,12.033375 56.077125,12.204375 C56.077125,12.631875 55.71375,12.9525 55.329,12.9525 C55.158,12.9525 55.008375,12.90975 54.880125,12.802875 C54.2175,12.332625 53.298375,12.012 52.315125,12.012 C51.01125,12.012 50.199,12.631875 50.199,13.4655 C50.199,15.538875 56.526,14.10675 56.526,18.168 Z" id="Viajes" fill="#6A7587"></path>
                <path d="M250.623763,16.597 C250.623763,19.216 248.976763,21.646 244.872763,21.97 L244.872763,23.644 C244.872763,24.157 244.467763,24.562 243.954763,24.562 C243.387763,24.562 242.982763,24.157 242.982763,23.644 L242.982763,21.997 C240.687763,21.835 238.608763,20.998 237.366763,19.729 C237.150763,19.513 237.042763,19.216 237.042763,18.919 C237.042763,18.244 237.582763,17.596 238.257763,17.596 C238.554763,17.596 238.797763,17.704 239.013763,17.866 C240.039763,18.73 241.389763,19.405 242.982763,19.621 L242.982763,13.654 C240.201763,12.898 237.312763,11.953 237.312763,8.551 C237.312763,5.77 239.607763,3.691 242.982763,3.448 L242.982763,1.72 C242.982763,1.207 243.387763,0.802 243.954763,0.802 C244.467763,0.802 244.872763,1.207 244.872763,1.72 L244.872763,3.502 C246.681763,3.691 248.382763,4.258 249.570763,5.392 C249.786763,5.608 249.894763,5.905 249.894763,6.202 C249.894763,6.904 249.300763,7.471 248.598763,7.471 C248.409763,7.471 248.166763,7.417 247.977763,7.282 C247.005763,6.58 245.979763,6.094 244.872763,5.932 L244.872763,11.224 C247.653763,11.98 250.623763,13.06 250.623763,16.597 Z M242.982763,10.738 L242.982763,5.824 C241.227763,5.959 240.066763,6.958 240.066763,8.362 C240.066763,9.685 241.335763,10.252 242.982763,10.738 Z M247.896763,16.867 C247.896763,15.328 246.573763,14.68 244.872763,14.167 L244.872763,19.621 C247.086763,19.351 247.896763,18.001 247.896763,16.867 Z M272.19041,16.192 C272.19041,16.84 271.67741,17.353 271.05641,17.353 L269.57141,17.353 L269.57141,20.539 C269.57141,21.268 268.97741,21.862 268.19441,21.862 C267.46541,21.862 266.89841,21.268 266.89841,20.539 L266.89841,17.353 L259.50041,17.353 C258.79841,17.353 258.15041,16.759 258.15041,15.895 C258.15041,15.625 258.25841,15.301 258.42041,15.031 L265.30541,4.582 C265.73741,3.934 266.49341,3.529 267.27641,3.529 C268.46441,3.448 269.57141,4.312 269.57141,5.5 L269.57141,15.004 L271.05641,15.004 C271.67741,15.004 272.19041,15.544 272.19041,16.192 Z M266.89841,15.004 L266.89841,6.121 L260.95841,15.004 L266.89841,15.004 Z M277.047234,20.296 C277.047234,21.214 276.291234,21.97 275.373234,21.97 C274.482234,21.97 273.726234,21.214 273.726234,20.296 C273.726234,19.405 274.482234,18.622 275.373234,18.622 C276.291234,18.622 277.047234,19.405 277.047234,20.296 Z M283.335058,20.539 C283.335058,21.268 282.741058,21.862 281.985058,21.862 C281.256058,21.862 280.662058,21.268 280.662058,20.539 L280.662058,7.201 L278.367058,9.577 C278.151058,9.793 277.908058,9.901 277.611058,9.901 C277.044058,9.901 276.477058,9.415 276.477058,8.767 C276.477058,8.47 276.585058,8.2 276.801058,7.957 L280.716058,3.988 C280.986058,3.691 281.364058,3.556 281.796058,3.556 C282.606058,3.556 283.335058,4.204 283.335058,5.041 L283.335058,20.539 Z M299.369881,16.192 C299.369881,16.84 298.856881,17.353 298.235881,17.353 L296.750881,17.353 L296.750881,20.539 C296.750881,21.268 296.156881,21.862 295.373881,21.862 C294.644881,21.862 294.077881,21.268 294.077881,20.539 L294.077881,17.353 L286.679881,17.353 C285.977881,17.353 285.329881,16.759 285.329881,15.895 C285.329881,15.625 285.437881,15.301 285.599881,15.031 L292.484881,4.582 C292.916881,3.934 293.672881,3.529 294.455881,3.529 C295.643881,3.448 296.750881,4.312 296.750881,5.5 L296.750881,15.004 L298.235881,15.004 C298.856881,15.004 299.369881,15.544 299.369881,16.192 Z M294.077881,15.004 L294.077881,6.121 L288.137881,15.004 L294.077881,15.004 Z M314.135705,16.003 C314.135705,19.729 311.354705,22.024 307.520705,22.024 C304.982705,22.024 302.822705,21.214 301.580705,19.783 C301.418705,19.567 301.337705,19.324 301.337705,19.054 C301.337705,18.46 301.850705,17.812 302.525705,17.812 C302.795705,17.812 303.092705,17.92 303.308705,18.109 C304.442705,19.108 305.819705,19.648 307.520705,19.648 C309.896705,19.648 311.462705,18.109 311.462705,16.111 C311.462705,13.951 309.896705,12.547 307.574705,12.547 C306.278705,12.547 305.063705,12.925 304.037705,13.735 C303.713705,13.951 303.335705,14.113 302.957705,14.113 C302.201705,14.113 301.580705,13.546 301.580705,12.79 L301.580705,5.446 C301.580705,4.474 302.390705,3.691 303.362705,3.691 L311.975705,3.691 C312.623705,3.691 313.136705,4.204 313.136705,4.906 C313.136705,5.527 312.623705,6.067 311.975705,6.067 L304.253705,6.067 L304.253705,11.818 C305.117705,10.954 306.629705,10.225 308.411705,10.225 C311.408705,10.225 314.135705,12.331 314.135705,16.003 Z M319.829529,20.863 C319.829529,22.375 318.992529,23.914 317.831529,24.913 C317.696529,25.021 317.534529,25.102 317.372529,25.102 C317.048529,25.102 316.616529,24.832 316.616529,24.4 C316.616529,24.211 316.697529,24.022 316.832529,23.86 C317.507529,23.293 318.047529,22.456 318.155529,21.754 C318.101529,21.781 317.885529,21.808 317.750529,21.808 C316.913529,21.808 316.319529,21.187 316.319529,20.269 C316.319529,19.378 317.021529,18.622 317.912529,18.622 C318.911529,18.622 319.829529,19.459 319.829529,20.863 Z M335.351353,12.682 C335.351353,17.731 332.867353,21.997 327.737353,21.997 C325.820353,21.997 324.200353,21.457 323.120353,20.296 C322.958353,20.107 322.850353,19.864 322.850353,19.594 C322.850353,18.919 323.444353,18.406 324.065353,18.406 C324.335353,18.406 324.578353,18.487 324.767353,18.622 C325.523353,19.243 326.441353,19.621 327.737353,19.621 C331.004353,19.621 332.651353,16.435 332.651353,13.087 C332.651353,12.871 332.651353,12.682 332.624353,12.466 C331.841353,13.708 329.897353,15.139 327.656353,15.139 C324.416353,15.139 321.716353,13.195 321.716353,9.361 C321.716353,6.121 324.200353,3.394 328.196353,3.394 C333.326353,3.394 335.351353,7.741 335.351353,12.682 Z M332.597353,10.414 C332.408353,8.308 331.274353,5.77 328.304353,5.77 C325.712353,5.77 324.416353,7.66 324.416353,9.253 C324.416353,11.71 326.198353,12.844 328.358353,12.844 C330.032353,12.844 331.625353,11.845 332.597353,10.414 Z M350.225176,20.485 C350.225176,21.187 349.712176,21.7 349.064176,21.7 L338.399176,21.7 C337.751176,21.7 337.157176,21.16 337.157176,20.404 C337.157176,19.999 337.346176,19.621 337.670176,19.351 C344.096176,14.464 347.255176,11.602 347.255176,8.848 C347.255176,6.742 345.473176,5.797 343.718176,5.797 C342.017176,5.797 340.613176,6.364 339.533176,7.309 C339.317176,7.525 339.047176,7.606 338.777176,7.606 C338.156176,7.606 337.562176,7.093 337.562176,6.418 C337.562176,6.175 337.643176,5.905 337.832176,5.689 C339.155176,4.231 341.477176,3.421 343.691176,3.421 C346.904176,3.421 349.955176,5.257 349.955176,8.848 C349.955176,12.358 346.553176,15.517 341.639176,19.324 L349.064176,19.324 C349.712176,19.324 350.225176,19.864 350.225176,20.485 Z" id="$-4.145,92" fill="#343348"></path>
                <path d="M13.968375,81.457125 C13.968375,85.5825 11.04,88.575 6.594,88.575 L2.9175,88.575 C2.148,88.575 1.528125,87.955125 1.528125,87.185625 L1.528125,75.70725 C1.528125,74.93775 2.148,74.317875 2.9175,74.317875 L6.594,74.317875 C11.04,74.317875 13.968375,77.353125 13.968375,81.457125 Z M11.8095,81.457125 C11.8095,78.52875 9.97125,76.198875 6.594,76.198875 L3.64425,76.198875 L3.64425,86.694 L6.594,86.694 C9.88575,86.694 11.8095,84.34275 11.8095,81.457125 Z M26.066625,83.06025 C26.066625,83.57325 25.61775,84.022125 25.083375,84.022125 L17.901375,84.022125 C18.051,85.79625 19.3335,87.2925 21.42825,87.2925 C22.304625,87.2925 23.245125,86.99325 23.99325,86.4375 C24.1215,86.373375 24.271125,86.330625 24.42075,86.330625 C24.76275,86.330625 25.19025,86.629875 25.19025,87.100125 C25.19025,88.254375 22.53975,88.8315 21.235875,88.8315 C18.157875,88.8315 15.9135,86.65125 15.9135,83.40225 C15.9135,80.40975 18.072375,77.994375 21.064875,77.994375 C23.56575,77.994375 25.27575,79.55475 25.87425,81.86325 C25.95975,82.20525 26.066625,82.654125 26.066625,83.06025 Z M24.228375,82.6755 C24.185625,81.286125 23.245125,79.533375 21.0435,79.533375 C18.9915,79.533375 17.986875,81.243375 17.901375,82.6755 L24.228375,82.6755 Z M30.40575,87.76275 C30.40575,88.27575 29.97825,88.70325 29.443875,88.70325 C28.930875,88.70325 28.503375,88.27575 28.503375,87.76275 L28.503375,75.10875 C28.503375,74.617125 28.930875,74.189625 29.486625,74.189625 C29.97825,74.189625 30.40575,74.617125 30.40575,75.10875 L30.40575,87.76275 Z M34.42425,74.42475 C35.10825,74.42475 35.642625,74.9805 35.642625,75.6645 C35.642625,76.327125 35.10825,76.882875 34.42425,76.882875 C33.761625,76.882875 33.205875,76.327125 33.205875,75.6645 C33.205875,74.9805 33.761625,74.42475 34.42425,74.42475 Z M35.386125,87.76275 C35.386125,88.27575 34.958625,88.70325 34.42425,88.70325 C33.91125,88.70325 33.48375,88.27575 33.48375,87.76275 L33.48375,79.04175 C33.48375,78.550125 33.91125,78.122625 34.467,78.122625 C34.958625,78.122625 35.386125,78.550125 35.386125,79.04175 L35.386125,87.76275 Z M47.121,79.063125 C47.121,79.17 47.099625,79.29825 47.056875,79.405125 L43.594125,87.8055 C43.359,88.339875 42.824625,88.70325 42.226125,88.70325 L42.183375,88.70325 C41.60625,88.70325 41.09325,88.339875 40.8795,87.8055 L37.395375,79.405125 C37.352625,79.29825 37.33125,79.17 37.33125,79.063125 C37.33125,78.592875 37.716,78.122625 38.293125,78.122625 C38.677875,78.122625 39.019875,78.336375 39.1695,78.721125 L42.226125,86.373375 L45.261375,78.721125 C45.411,78.35775 45.774375,78.122625 46.13775,78.122625 C46.714875,78.122625 47.121,78.5715 47.121,79.063125 Z M58.599375,83.06025 C58.599375,83.57325 58.1505,84.022125 57.616125,84.022125 L50.434125,84.022125 C50.58375,85.79625 51.86625,87.2925 53.961,87.2925 C54.837375,87.2925 55.777875,86.99325 56.526,86.4375 C56.65425,86.373375 56.803875,86.330625 56.9535,86.330625 C57.2955,86.330625 57.723,86.629875 57.723,87.100125 C57.723,88.254375 55.0725,88.8315 53.768625,88.8315 C50.690625,88.8315 48.44625,86.65125 48.44625,83.40225 C48.44625,80.40975 50.605125,77.994375 53.597625,77.994375 C56.0985,77.994375 57.8085,79.55475 58.407,81.86325 C58.4925,82.20525 58.599375,82.654125 58.599375,83.06025 Z M56.761125,82.6755 C56.718375,81.286125 55.777875,79.533375 53.57625,79.533375 C51.52425,79.533375 50.519625,81.243375 50.434125,82.6755 L56.761125,82.6755 Z M66.465375,78.95625 C66.465375,79.512 66.037875,79.918125 65.5035,79.960875 C64.52025,80.046375 63.558375,80.473875 62.9385,81.393 L62.9385,87.76275 C62.9385,88.27575 62.511,88.70325 61.976625,88.70325 L61.95525,88.70325 C61.44225,88.681875 61.036125,88.27575 61.036125,87.76275 L61.036125,79.04175 C61.036125,78.550125 61.463625,78.122625 62.019375,78.122625 C62.511,78.122625 62.9385,78.550125 62.9385,79.04175 L62.9385,79.854 C63.515625,79.063125 64.456125,78.10125 65.610375,78.10125 C66.102,78.10125 66.465375,78.464625 66.465375,78.95625 Z M76.91775,79.063125 C76.91775,79.17 76.896375,79.29825 76.853625,79.38375 L72.236625,90.562875 C71.574,92.12325 70.441125,92.7645 69.05175,92.7645 C68.389125,92.7645 67.68375,92.614875 67.68375,91.9095 C67.68375,91.417875 68.0685,91.0545 68.53875,91.0545 C68.70975,91.0545 68.88075,91.075875 69.030375,91.0545 C69.6075,91.0545 70.07775,90.819375 70.41975,90.07125 L71.01825,88.70325 L67.192125,79.38375 C67.149375,79.276875 67.128,79.17 67.128,79.063125 C67.128,78.592875 67.51275,78.122625 68.089875,78.122625 C68.45325,78.122625 68.816625,78.336375 68.96625,78.721125 L72.022875,86.373375 L75.058125,78.721125 C75.20775,78.35775 75.571125,78.122625 75.955875,78.122625 C76.511625,78.122625 76.91775,78.5715 76.91775,79.063125 Z" id="Delivery" fill="#6A7587"></path>
                <path d="M243.025763,84.097 C243.025763,86.716 241.378763,89.146 237.274763,89.47 L237.274763,91.144 C237.274763,91.657 236.869763,92.062 236.356763,92.062 C235.789763,92.062 235.384763,91.657 235.384763,91.144 L235.384763,89.497 C233.089763,89.335 231.010763,88.498 229.768763,87.229 C229.552763,87.013 229.444763,86.716 229.444763,86.419 C229.444763,85.744 229.984763,85.096 230.659763,85.096 C230.956763,85.096 231.199763,85.204 231.415763,85.366 C232.441763,86.23 233.791763,86.905 235.384763,87.121 L235.384763,81.154 C232.603763,80.398 229.714763,79.453 229.714763,76.051 C229.714763,73.27 232.009763,71.191 235.384763,70.948 L235.384763,69.22 C235.384763,68.707 235.789763,68.302 236.356763,68.302 C236.869763,68.302 237.274763,68.707 237.274763,69.22 L237.274763,71.002 C239.083763,71.191 240.784763,71.758 241.972763,72.892 C242.188763,73.108 242.296763,73.405 242.296763,73.702 C242.296763,74.404 241.702763,74.971 241.000763,74.971 C240.811763,74.971 240.568763,74.917 240.379763,74.782 C239.407763,74.08 238.381763,73.594 237.274763,73.432 L237.274763,78.724 C240.055763,79.48 243.025763,80.56 243.025763,84.097 Z M235.384763,78.238 L235.384763,73.324 C233.629763,73.459 232.468763,74.458 232.468763,75.862 C232.468763,77.185 233.737763,77.752 235.384763,78.238 Z M240.298763,84.367 C240.298763,82.828 238.975763,82.18 237.274763,81.667 L237.274763,87.121 C239.488763,86.851 240.298763,85.501 240.298763,84.367 Z M264.16041,87.985 C264.16041,88.687 263.64741,89.2 262.99941,89.2 L252.33441,89.2 C251.68641,89.2 251.09241,88.66 251.09241,87.904 C251.09241,87.499 251.28141,87.121 251.60541,86.851 C258.03141,81.964 261.19041,79.102 261.19041,76.348 C261.19041,74.242 259.40841,73.297 257.65341,73.297 C255.95241,73.297 254.54841,73.864 253.46841,74.809 C253.25241,75.025 252.98241,75.106 252.71241,75.106 C252.09141,75.106 251.49741,74.593 251.49741,73.918 C251.49741,73.675 251.57841,73.405 251.76741,73.189 C253.09041,71.731 255.41241,70.921 257.62641,70.921 C260.83941,70.921 263.89041,72.757 263.89041,76.348 C263.89041,79.858 260.48841,83.017 255.57441,86.824 L262.99941,86.824 C263.64741,86.824 264.16041,87.364 264.16041,87.985 Z M270.070234,87.796 C270.070234,88.714 269.314234,89.47 268.396234,89.47 C267.505234,89.47 266.749234,88.714 266.749234,87.796 C266.749234,86.905 267.505234,86.122 268.396234,86.122 C269.314234,86.122 270.070234,86.905 270.070234,87.796 Z M284.836058,84.313 C284.836058,87.337 282.325058,89.524 278.275058,89.524 C275.683058,89.524 273.361058,88.525 272.200058,87.148 C272.011058,86.959 271.930058,86.716 271.930058,86.473 C271.930058,85.852 272.470058,85.258 273.118058,85.258 C273.361058,85.258 273.631058,85.339 273.847058,85.528 C275.008058,86.527 276.547058,87.148 278.194058,87.148 C280.678058,87.148 282.190058,85.96 282.190058,84.07 C282.190058,82.045 280.543058,81.181 277.924058,81.181 C276.952058,81.235 275.818058,81.154 275.818058,79.966 C275.818058,79.318 276.304058,78.805 276.979058,78.805 C279.598058,78.832 281.893058,78.4 281.893058,76.132 C281.893058,74.269 280.138058,73.297 278.032058,73.297 C276.493058,73.297 275.170058,73.81 274.009058,74.782 C273.820058,74.944 273.577058,75.025 273.334058,75.025 C272.767058,75.025 272.173058,74.539 272.173058,73.891 C272.173058,73.594 272.308058,73.27 272.524058,73.081 C273.955058,71.758 275.845058,70.921 278.275058,70.921 C281.920058,70.921 284.566058,72.703 284.566058,75.754 C284.566058,78.265 282.433058,79.588 280.651058,79.912 C282.352058,80.074 284.836058,81.478 284.836058,84.313 Z M299.817881,87.985 C299.817881,88.687 299.304881,89.2 298.656881,89.2 L287.991881,89.2 C287.343881,89.2 286.749881,88.66 286.749881,87.904 C286.749881,87.499 286.938881,87.121 287.262881,86.851 C293.688881,81.964 296.847881,79.102 296.847881,76.348 C296.847881,74.242 295.065881,73.297 293.310881,73.297 C291.609881,73.297 290.205881,73.864 289.125881,74.809 C288.909881,75.025 288.639881,75.106 288.369881,75.106 C287.748881,75.106 287.154881,74.593 287.154881,73.918 C287.154881,73.675 287.235881,73.405 287.424881,73.189 C288.747881,71.731 291.069881,70.921 293.283881,70.921 C296.496881,70.921 299.547881,72.757 299.547881,76.348 C299.547881,79.858 296.145881,83.017 291.231881,86.824 L298.656881,86.824 C299.304881,86.824 299.817881,87.364 299.817881,87.985 Z M315.690705,80.182 C315.690705,85.231 313.206705,89.497 308.076705,89.497 C306.159705,89.497 304.539705,88.957 303.459705,87.796 C303.297705,87.607 303.189705,87.364 303.189705,87.094 C303.189705,86.419 303.783705,85.906 304.404705,85.906 C304.674705,85.906 304.917705,85.987 305.106705,86.122 C305.862705,86.743 306.780705,87.121 308.076705,87.121 C311.343705,87.121 312.990705,83.935 312.990705,80.587 C312.990705,80.371 312.990705,80.182 312.963705,79.966 C312.180705,81.208 310.236705,82.639 307.995705,82.639 C304.755705,82.639 302.055705,80.695 302.055705,76.861 C302.055705,73.621 304.539705,70.894 308.535705,70.894 C313.665705,70.894 315.690705,75.241 315.690705,80.182 Z M312.936705,77.914 C312.747705,75.808 311.613705,73.27 308.643705,73.27 C306.051705,73.27 304.755705,75.16 304.755705,76.753 C304.755705,79.21 306.537705,80.344 308.697705,80.344 C310.371705,80.344 311.964705,79.345 312.936705,77.914 Z M320.601529,88.363 C320.601529,89.875 319.764529,91.414 318.603529,92.413 C318.468529,92.521 318.306529,92.602 318.144529,92.602 C317.820529,92.602 317.388529,92.332 317.388529,91.9 C317.388529,91.711 317.469529,91.522 317.604529,91.36 C318.279529,90.793 318.819529,89.956 318.927529,89.254 C318.873529,89.281 318.657529,89.308 318.522529,89.308 C317.685529,89.308 317.091529,88.687 317.091529,87.769 C317.091529,86.878 317.793529,86.122 318.684529,86.122 C319.683529,86.122 320.601529,86.959 320.601529,88.363 Z M335.880353,80.209 C335.880353,84.664 333.801353,89.524 328.833353,89.524 C323.838353,89.524 321.786353,84.664 321.786353,80.209 C321.786353,75.754 323.838353,70.921 328.833353,70.921 C333.801353,70.921 335.880353,75.754 335.880353,80.209 Z M333.153353,80.209 C333.153353,76.699 332.019353,73.297 328.833353,73.297 C325.620353,73.297 324.513353,76.699 324.513353,80.209 C324.513353,83.719 325.620353,87.148 328.833353,87.148 C332.019353,87.148 333.153353,83.719 333.153353,80.209 Z M350.349176,84.313 C350.349176,87.337 347.838176,89.524 343.788176,89.524 C341.196176,89.524 338.874176,88.525 337.713176,87.148 C337.524176,86.959 337.443176,86.716 337.443176,86.473 C337.443176,85.852 337.983176,85.258 338.631176,85.258 C338.874176,85.258 339.144176,85.339 339.360176,85.528 C340.521176,86.527 342.060176,87.148 343.707176,87.148 C346.191176,87.148 347.703176,85.96 347.703176,84.07 C347.703176,82.045 346.056176,81.181 343.437176,81.181 C342.465176,81.235 341.331176,81.154 341.331176,79.966 C341.331176,79.318 341.817176,78.805 342.492176,78.805 C345.111176,78.832 347.406176,78.4 347.406176,76.132 C347.406176,74.269 345.651176,73.297 343.545176,73.297 C342.006176,73.297 340.683176,73.81 339.522176,74.782 C339.333176,74.944 339.090176,75.025 338.847176,75.025 C338.280176,75.025 337.686176,74.539 337.686176,73.891 C337.686176,73.594 337.821176,73.27 338.037176,73.081 C339.468176,71.758 341.358176,70.921 343.788176,70.921 C347.433176,70.921 350.079176,72.703 350.079176,75.754 C350.079176,78.265 347.946176,79.588 346.164176,79.912 C347.865176,80.074 350.349176,81.478 350.349176,84.313 Z" id="$-2.329,03" fill="#343348"></path>
                <path d="M13.540875,155.070375 C13.540875,155.60475 13.092,156.20325 12.408,156.20325 C11.959125,156.20325 11.553,155.94675 11.382,155.51925 L10.4415,153.103875 L3.622875,153.103875 L2.682375,155.51925 C2.511375,155.94675 2.10525,156.20325 1.656375,156.20325 C0.99375,156.20325 0.5235,155.6475 0.5235,155.070375 C0.5235,154.942125 0.544875,154.813875 0.587625,154.66425 L5.3115,142.8225 C5.568,142.1385 6.252,141.689625 7.000125,141.689625 C7.74825,141.66825 8.453625,142.117125 8.7315,142.8225 L13.455375,154.66425 C13.5195,154.813875 13.540875,154.942125 13.540875,155.070375 Z M9.843,151.24425 L7.0215,143.97675 L4.221375,151.24425 L9.843,151.24425 Z M30.127875,155.26275 C30.127875,155.77575 29.700375,156.20325 29.166,156.20325 C28.653,156.20325 28.2255,155.77575 28.2255,155.26275 L28.2255,149.19225 C28.2255,147.973875 27.691125,147.183 26.43,147.183 C25.382625,147.183 24.33525,147.931125 23.843625,148.67925 L23.843625,155.26275 C23.843625,155.77575 23.416125,156.20325 22.88175,156.20325 C22.36875,156.20325 21.94125,155.77575 21.94125,155.26275 L21.94125,149.19225 C21.94125,147.973875 21.42825,147.183 20.124375,147.183 C19.11975,147.183 18.09375,147.931125 17.58075,148.700625 L17.58075,155.26275 C17.58075,155.77575 17.15325,156.20325 16.618875,156.20325 C16.105875,156.20325 15.678375,155.77575 15.678375,155.26275 L15.678375,146.54175 C15.678375,146.050125 16.105875,145.622625 16.661625,145.622625 C17.15325,145.622625 17.58075,146.050125 17.58075,146.54175 L17.58075,147.204375 C18.00825,146.563125 19.37625,145.494375 20.91525,145.494375 C22.497,145.494375 23.39475,146.306625 23.715375,147.39675 C24.313875,146.45625 25.681875,145.494375 27.1995,145.494375 C29.101875,145.494375 30.127875,146.520375 30.127875,148.615125 L30.127875,155.26275 Z M34.146375,141.92475 C34.830375,141.92475 35.36475,142.4805 35.36475,143.1645 C35.36475,143.827125 34.830375,144.382875 34.146375,144.382875 C33.48375,144.382875 32.928,143.827125 32.928,143.1645 C32.928,142.4805 33.48375,141.92475 34.146375,141.92475 Z M35.10825,155.26275 C35.10825,155.77575 34.68075,156.20325 34.146375,156.20325 C33.633375,156.20325 33.205875,155.77575 33.205875,155.26275 L33.205875,146.54175 C33.205875,146.050125 33.633375,145.622625 34.189125,145.622625 C34.68075,145.622625 35.10825,146.050125 35.10825,146.54175 L35.10825,155.26275 Z M47.441625,155.668875 C47.441625,159.217125 44.876625,160.2645 42.354375,160.2645 C40.900875,160.2645 39.447375,159.96525 38.44275,159.003375 C38.3145,158.875125 38.229,158.68275 38.229,158.469 C38.229,158.020125 38.61375,157.65675 39.04125,157.65675 C39.233625,157.65675 39.38325,157.6995 39.532875,157.806375 C40.32375,158.469 41.2215,158.704125 42.354375,158.704125 C43.9575,158.704125 45.53925,157.934625 45.53925,155.733 L45.53925,154.365 C44.76975,155.412375 43.551375,156.1605 42.140625,156.1605 C39.490125,156.1605 37.566375,154.194 37.566375,150.838125 C37.566375,147.503625 39.46875,145.494375 42.140625,145.494375 C43.508625,145.494375 44.705625,146.135625 45.53925,147.247125 L45.53925,146.54175 C45.53925,146.050125 45.96675,145.622625 46.5225,145.622625 C47.014125,145.622625 47.441625,146.050125 47.441625,146.54175 L47.441625,155.668875 Z M45.53925,152.9115 L45.53925,148.722 C45.004875,147.888375 43.82925,147.183 42.653625,147.183 C40.729875,147.183 39.532875,148.67925 39.532875,150.838125 C39.532875,152.95425 40.729875,154.471875 42.653625,154.471875 C43.82925,154.471875 45.004875,153.745125 45.53925,152.9115 Z M60.309375,150.90225 C60.309375,153.873375 58.3215,156.3315 55.093875,156.3315 C51.887625,156.3315 49.89975,153.873375 49.89975,150.90225 C49.89975,147.931125 51.887625,145.494375 55.093875,145.494375 C58.3215,145.494375 60.309375,147.931125 60.309375,150.90225 Z M58.3215,150.90225 C58.3215,148.93575 57.16725,147.183 55.093875,147.183 C53.041875,147.183 51.86625,148.93575 51.86625,150.90225 C51.86625,152.890125 53.041875,154.642875 55.093875,154.642875 C57.16725,154.642875 58.3215,152.890125 58.3215,150.90225 Z M70.33425,153.168 C70.33425,154.92075 68.88075,156.3315 66.14475,156.3315 C64.734,156.3315 63.173625,155.925375 62.233125,154.984875 C62.0835,154.856625 61.998,154.685625 61.998,154.471875 C61.998,154.023 62.38275,153.681 62.831625,153.681 C63.024,153.681 63.173625,153.72375 63.32325,153.830625 C64.09275,154.386375 65.1615,154.813875 66.23025,154.813875 C67.705125,154.813875 68.474625,154.15125 68.474625,153.21075 C68.474625,150.923625 62.169,152.419875 62.169,148.529625 C62.169,146.905125 63.57975,145.494375 66.102,145.494375 C67.576875,145.494375 68.88075,145.94325 69.693,146.734125 C69.82125,146.862375 69.885375,147.033375 69.885375,147.204375 C69.885375,147.631875 69.522,147.9525 69.13725,147.9525 C68.96625,147.9525 68.816625,147.90975 68.688375,147.802875 C68.02575,147.332625 67.106625,147.012 66.123375,147.012 C64.8195,147.012 64.00725,147.631875 64.00725,148.4655 C64.00725,150.538875 70.33425,149.10675 70.33425,153.168 Z" id="Amigos" fill="#6A7587"></path>
                <path d="M240.328763,151.597 C240.328763,154.216 238.681763,156.646 234.577763,156.97 L234.577763,158.644 C234.577763,159.157 234.172763,159.562 233.659763,159.562 C233.092763,159.562 232.687763,159.157 232.687763,158.644 L232.687763,156.997 C230.392763,156.835 228.313763,155.998 227.071763,154.729 C226.855763,154.513 226.747763,154.216 226.747763,153.919 C226.747763,153.244 227.287763,152.596 227.962763,152.596 C228.259763,152.596 228.502763,152.704 228.718763,152.866 C229.744763,153.73 231.094763,154.405 232.687763,154.621 L232.687763,148.654 C229.906763,147.898 227.017763,146.953 227.017763,143.551 C227.017763,140.77 229.312763,138.691 232.687763,138.448 L232.687763,136.72 C232.687763,136.207 233.092763,135.802 233.659763,135.802 C234.172763,135.802 234.577763,136.207 234.577763,136.72 L234.577763,138.502 C236.386763,138.691 238.087763,139.258 239.275763,140.392 C239.491763,140.608 239.599763,140.905 239.599763,141.202 C239.599763,141.904 239.005763,142.471 238.303763,142.471 C238.114763,142.471 237.871763,142.417 237.682763,142.282 C236.710763,141.58 235.684763,141.094 234.577763,140.932 L234.577763,146.224 C237.358763,146.98 240.328763,148.06 240.328763,151.597 Z M232.687763,145.738 L232.687763,140.824 C230.932763,140.959 229.771763,141.958 229.771763,143.362 C229.771763,144.685 231.040763,145.252 232.687763,145.738 Z M237.601763,151.867 C237.601763,150.328 236.278763,149.68 234.577763,149.167 L234.577763,154.621 C236.791763,154.351 237.601763,153.001 237.601763,151.867 Z M261.46341,155.485 C261.46341,156.187 260.95041,156.7 260.30241,156.7 L249.63741,156.7 C248.98941,156.7 248.39541,156.16 248.39541,155.404 C248.39541,154.999 248.58441,154.621 248.90841,154.351 C255.33441,149.464 258.49341,146.602 258.49341,143.848 C258.49341,141.742 256.71141,140.797 254.95641,140.797 C253.25541,140.797 251.85141,141.364 250.77141,142.309 C250.55541,142.525 250.28541,142.606 250.01541,142.606 C249.39441,142.606 248.80041,142.093 248.80041,141.418 C248.80041,141.175 248.88141,140.905 249.07041,140.689 C250.39341,139.231 252.71541,138.421 254.92941,138.421 C258.14241,138.421 261.19341,140.257 261.19341,143.848 C261.19341,147.358 257.79141,150.517 252.87741,154.324 L260.30241,154.324 C260.95041,154.324 261.46341,154.864 261.46341,155.485 Z M267.373234,155.296 C267.373234,156.214 266.617234,156.97 265.699234,156.97 C264.808234,156.97 264.052234,156.214 264.052234,155.296 C264.052234,154.405 264.808234,153.622 265.699234,153.622 C266.617234,153.622 267.373234,154.405 267.373234,155.296 Z M282.841058,147.709 C282.841058,152.164 280.762058,157.024 275.794058,157.024 C270.799058,157.024 268.747058,152.164 268.747058,147.709 C268.747058,143.254 270.799058,138.421 275.794058,138.421 C280.762058,138.421 282.841058,143.254 282.841058,147.709 Z M280.114058,147.709 C280.114058,144.199 278.980058,140.797 275.794058,140.797 C272.581058,140.797 271.474058,144.199 271.474058,147.709 C271.474058,151.219 272.581058,154.648 275.794058,154.648 C278.980058,154.648 280.114058,151.219 280.114058,147.709 Z M298.767881,147.709 C298.767881,152.164 296.688881,157.024 291.720881,157.024 C286.725881,157.024 284.673881,152.164 284.673881,147.709 C284.673881,143.254 286.725881,138.421 291.720881,138.421 C296.688881,138.421 298.767881,143.254 298.767881,147.709 Z M296.040881,147.709 C296.040881,144.199 294.906881,140.797 291.720881,140.797 C288.507881,140.797 287.400881,144.199 287.400881,147.709 C287.400881,151.219 288.507881,154.648 291.720881,154.648 C294.906881,154.648 296.040881,151.219 296.040881,147.709 Z M314.694705,147.709 C314.694705,152.164 312.615705,157.024 307.647705,157.024 C302.652705,157.024 300.600705,152.164 300.600705,147.709 C300.600705,143.254 302.652705,138.421 307.647705,138.421 C312.615705,138.421 314.694705,143.254 314.694705,147.709 Z M311.967705,147.709 C311.967705,144.199 310.833705,140.797 307.647705,140.797 C304.434705,140.797 303.327705,144.199 303.327705,147.709 C303.327705,151.219 304.434705,154.648 307.647705,154.648 C310.833705,154.648 311.967705,151.219 311.967705,147.709 Z M319.578529,155.863 C319.578529,157.375 318.741529,158.914 317.580529,159.913 C317.445529,160.021 317.283529,160.102 317.121529,160.102 C316.797529,160.102 316.365529,159.832 316.365529,159.4 C316.365529,159.211 316.446529,159.022 316.581529,158.86 C317.256529,158.293 317.796529,157.456 317.904529,156.754 C317.850529,156.781 317.634529,156.808 317.499529,156.808 C316.662529,156.808 316.068529,156.187 316.068529,155.269 C316.068529,154.378 316.770529,153.622 317.661529,153.622 C318.660529,153.622 319.578529,154.459 319.578529,155.863 Z M334.857353,147.709 C334.857353,152.164 332.778353,157.024 327.810353,157.024 C322.815353,157.024 320.763353,152.164 320.763353,147.709 C320.763353,143.254 322.815353,138.421 327.810353,138.421 C332.778353,138.421 334.857353,143.254 334.857353,147.709 Z M332.130353,147.709 C332.130353,144.199 330.996353,140.797 327.810353,140.797 C324.597353,140.797 323.490353,144.199 323.490353,147.709 C323.490353,151.219 324.597353,154.648 327.810353,154.648 C330.996353,154.648 332.130353,151.219 332.130353,147.709 Z M350.784176,147.709 C350.784176,152.164 348.705176,157.024 343.737176,157.024 C338.742176,157.024 336.690176,152.164 336.690176,147.709 C336.690176,143.254 338.742176,138.421 343.737176,138.421 C348.705176,138.421 350.784176,143.254 350.784176,147.709 Z M348.057176,147.709 C348.057176,144.199 346.923176,140.797 343.737176,140.797 C340.524176,140.797 339.417176,144.199 339.417176,147.709 C339.417176,151.219 340.524176,154.648 343.737176,154.648 C346.923176,154.648 348.057176,151.219 348.057176,147.709 Z" id="Mask" fill="#343348"></path>
                <path d="M255.072763,219.097 C255.072763,221.716 253.425763,224.146 249.321763,224.47 L249.321763,226.144 C249.321763,226.657 248.916763,227.062 248.403763,227.062 C247.836763,227.062 247.431763,226.657 247.431763,226.144 L247.431763,224.497 C245.136763,224.335 243.057763,223.498 241.815763,222.229 C241.599763,222.013 241.491763,221.716 241.491763,221.419 C241.491763,220.744 242.031763,220.096 242.706763,220.096 C243.003763,220.096 243.246763,220.204 243.462763,220.366 C244.488763,221.23 245.838763,221.905 247.431763,222.121 L247.431763,216.154 C244.650763,215.398 241.761763,214.453 241.761763,211.051 C241.761763,208.27 244.056763,206.191 247.431763,205.948 L247.431763,204.22 C247.431763,203.707 247.836763,203.302 248.403763,203.302 C248.916763,203.302 249.321763,203.707 249.321763,204.22 L249.321763,206.002 C251.130763,206.191 252.831763,206.758 254.019763,207.892 C254.235763,208.108 254.343763,208.405 254.343763,208.702 C254.343763,209.404 253.749763,209.971 253.047763,209.971 C252.858763,209.971 252.615763,209.917 252.426763,209.782 C251.454763,209.08 250.428763,208.594 249.321763,208.432 L249.321763,213.724 C252.102763,214.48 255.072763,215.56 255.072763,219.097 Z M247.431763,213.238 L247.431763,208.324 C245.676763,208.459 244.515763,209.458 244.515763,210.862 C244.515763,212.185 245.784763,212.752 247.431763,213.238 Z M252.345763,219.367 C252.345763,217.828 251.022763,217.18 249.321763,216.667 L249.321763,222.121 C251.535763,221.851 252.345763,220.501 252.345763,219.367 Z M269.61941,223.039 C269.61941,223.768 269.02541,224.362 268.26941,224.362 C267.54041,224.362 266.94641,223.768 266.94641,223.039 L266.94641,209.701 L264.65141,212.077 C264.43541,212.293 264.19241,212.401 263.89541,212.401 C263.32841,212.401 262.76141,211.915 262.76141,211.267 C262.76141,210.97 262.86941,210.7 263.08541,210.457 L267.00041,206.488 C267.27041,206.191 267.64841,206.056 268.08041,206.056 C268.89041,206.056 269.61941,206.704 269.61941,207.541 L269.61941,223.039 Z M275.826234,222.796 C275.826234,223.714 275.070234,224.47 274.152234,224.47 C273.261234,224.47 272.505234,223.714 272.505234,222.796 C272.505234,221.905 273.261234,221.122 274.152234,221.122 C275.070234,221.122 275.826234,221.905 275.826234,222.796 Z M291.483058,218.503 C291.483058,222.229 288.702058,224.524 284.868058,224.524 C282.330058,224.524 280.170058,223.714 278.928058,222.283 C278.766058,222.067 278.685058,221.824 278.685058,221.554 C278.685058,220.96 279.198058,220.312 279.873058,220.312 C280.143058,220.312 280.440058,220.42 280.656058,220.609 C281.790058,221.608 283.167058,222.148 284.868058,222.148 C287.244058,222.148 288.810058,220.609 288.810058,218.611 C288.810058,216.451 287.244058,215.047 284.922058,215.047 C283.626058,215.047 282.411058,215.425 281.385058,216.235 C281.061058,216.451 280.683058,216.613 280.305058,216.613 C279.549058,216.613 278.928058,216.046 278.928058,215.29 L278.928058,207.946 C278.928058,206.974 279.738058,206.191 280.710058,206.191 L289.323058,206.191 C289.971058,206.191 290.484058,206.704 290.484058,207.406 C290.484058,208.027 289.971058,208.567 289.323058,208.567 L281.601058,208.567 L281.601058,214.318 C282.465058,213.454 283.977058,212.725 285.759058,212.725 C288.756058,212.725 291.483058,214.831 291.483058,218.503 Z M306.950881,215.182 C306.950881,220.231 304.466881,224.497 299.336881,224.497 C297.419881,224.497 295.799881,223.957 294.719881,222.796 C294.557881,222.607 294.449881,222.364 294.449881,222.094 C294.449881,221.419 295.043881,220.906 295.664881,220.906 C295.934881,220.906 296.177881,220.987 296.366881,221.122 C297.122881,221.743 298.040881,222.121 299.336881,222.121 C302.603881,222.121 304.250881,218.935 304.250881,215.587 C304.250881,215.371 304.250881,215.182 304.223881,214.966 C303.440881,216.208 301.496881,217.639 299.255881,217.639 C296.015881,217.639 293.315881,215.695 293.315881,211.861 C293.315881,208.621 295.799881,205.894 299.795881,205.894 C304.925881,205.894 306.950881,210.241 306.950881,215.182 Z M304.196881,212.914 C304.007881,210.808 302.873881,208.27 299.903881,208.27 C297.311881,208.27 296.015881,210.16 296.015881,211.753 C296.015881,214.21 297.797881,215.344 299.957881,215.344 C301.631881,215.344 303.224881,214.345 304.196881,212.914 Z M322.256705,218.692 C322.256705,219.34 321.743705,219.853 321.122705,219.853 L319.637705,219.853 L319.637705,223.039 C319.637705,223.768 319.043705,224.362 318.260705,224.362 C317.531705,224.362 316.964705,223.768 316.964705,223.039 L316.964705,219.853 L309.566705,219.853 C308.864705,219.853 308.216705,219.259 308.216705,218.395 C308.216705,218.125 308.324705,217.801 308.486705,217.531 L315.371705,207.082 C315.803705,206.434 316.559705,206.029 317.342705,206.029 C318.530705,205.948 319.637705,206.812 319.637705,208 L319.637705,217.504 L321.122705,217.504 C321.743705,217.504 322.256705,218.044 322.256705,218.692 Z M316.964705,217.504 L316.964705,208.621 L311.024705,217.504 L316.964705,217.504 Z M327.302529,223.363 C327.302529,224.875 326.465529,226.414 325.304529,227.413 C325.169529,227.521 325.007529,227.602 324.845529,227.602 C324.521529,227.602 324.089529,227.332 324.089529,226.9 C324.089529,226.711 324.170529,226.522 324.305529,226.36 C324.980529,225.793 325.520529,224.956 325.628529,224.254 C325.574529,224.281 325.358529,224.308 325.223529,224.308 C324.386529,224.308 323.792529,223.687 323.792529,222.769 C323.792529,221.878 324.494529,221.122 325.385529,221.122 C326.384529,221.122 327.302529,221.959 327.302529,223.363 Z M333.401353,223.039 C333.401353,223.768 332.807353,224.362 332.051353,224.362 C331.322353,224.362 330.728353,223.768 330.728353,223.039 L330.728353,209.701 L328.433353,212.077 C328.217353,212.293 327.974353,212.401 327.677353,212.401 C327.110353,212.401 326.543353,211.915 326.543353,211.267 C326.543353,210.97 326.651353,210.7 326.867353,210.457 L330.782353,206.488 C331.052353,206.191 331.430353,206.056 331.862353,206.056 C332.672353,206.056 333.401353,206.704 333.401353,207.541 L333.401353,223.039 Z M350.084176,215.209 C350.084176,219.664 348.005176,224.524 343.037176,224.524 C338.042176,224.524 335.990176,219.664 335.990176,215.209 C335.990176,210.754 338.042176,205.921 343.037176,205.921 C348.005176,205.921 350.084176,210.754 350.084176,215.209 Z M347.357176,215.209 C347.357176,211.699 346.223176,208.297 343.037176,208.297 C339.824176,208.297 338.717176,211.699 338.717176,215.209 C338.717176,218.719 339.824176,222.148 343.037176,222.148 C346.223176,222.148 347.357176,218.719 347.357176,215.209 Z" id="$-1.594,10" fill="#343348"></path>
                <path d="M263.42841,286.597 C263.42841,289.216 261.78141,291.646 257.67741,291.97 L257.67741,293.644 C257.67741,294.157 257.27241,294.562 256.75941,294.562 C256.19241,294.562 255.78741,294.157 255.78741,293.644 L255.78741,291.997 C253.49241,291.835 251.41341,290.998 250.17141,289.729 C249.95541,289.513 249.84741,289.216 249.84741,288.919 C249.84741,288.244 250.38741,287.596 251.06241,287.596 C251.35941,287.596 251.60241,287.704 251.81841,287.866 C252.84441,288.73 254.19441,289.405 255.78741,289.621 L255.78741,283.654 C253.00641,282.898 250.11741,281.953 250.11741,278.551 C250.11741,275.77 252.41241,273.691 255.78741,273.448 L255.78741,271.72 C255.78741,271.207 256.19241,270.802 256.75941,270.802 C257.27241,270.802 257.67741,271.207 257.67741,271.72 L257.67741,273.502 C259.48641,273.691 261.18741,274.258 262.37541,275.392 C262.59141,275.608 262.69941,275.905 262.69941,276.202 C262.69941,276.904 262.10541,277.471 261.40341,277.471 C261.21441,277.471 260.97141,277.417 260.78241,277.282 C259.81041,276.58 258.78441,276.094 257.67741,275.932 L257.67741,281.224 C260.45841,281.98 263.42841,283.06 263.42841,286.597 Z M255.78741,280.738 L255.78741,275.824 C254.03241,275.959 252.87141,276.958 252.87141,278.362 C252.87141,279.685 254.14041,280.252 255.78741,280.738 Z M260.70141,286.867 C260.70141,285.328 259.37841,284.68 257.67741,284.167 L257.67741,289.621 C259.89141,289.351 260.70141,288.001 260.70141,286.867 Z M285.130058,282.682 C285.130058,287.731 282.646058,291.997 277.516058,291.997 C275.599058,291.997 273.979058,291.457 272.899058,290.296 C272.737058,290.107 272.629058,289.864 272.629058,289.594 C272.629058,288.919 273.223058,288.406 273.844058,288.406 C274.114058,288.406 274.357058,288.487 274.546058,288.622 C275.302058,289.243 276.220058,289.621 277.516058,289.621 C280.783058,289.621 282.430058,286.435 282.430058,283.087 C282.430058,282.871 282.430058,282.682 282.403058,282.466 C281.620058,283.708 279.676058,285.139 277.435058,285.139 C274.195058,285.139 271.495058,283.195 271.495058,279.361 C271.495058,276.121 273.979058,273.394 277.975058,273.394 C283.105058,273.394 285.130058,277.741 285.130058,282.682 Z M282.376058,280.414 C282.187058,278.308 281.053058,275.77 278.083058,275.77 C275.491058,275.77 274.195058,277.66 274.195058,279.253 C274.195058,281.71 275.977058,282.844 278.137058,282.844 C279.811058,282.844 281.404058,281.845 282.376058,280.414 Z M300.435881,286.192 C300.435881,286.84 299.922881,287.353 299.301881,287.353 L297.816881,287.353 L297.816881,290.539 C297.816881,291.268 297.222881,291.862 296.439881,291.862 C295.710881,291.862 295.143881,291.268 295.143881,290.539 L295.143881,287.353 L287.745881,287.353 C287.043881,287.353 286.395881,286.759 286.395881,285.895 C286.395881,285.625 286.503881,285.301 286.665881,285.031 L293.550881,274.582 C293.982881,273.934 294.738881,273.529 295.521881,273.529 C296.709881,273.448 297.816881,274.312 297.816881,275.5 L297.816881,285.004 L299.301881,285.004 C299.922881,285.004 300.435881,285.544 300.435881,286.192 Z M295.143881,285.004 L295.143881,276.121 L289.203881,285.004 L295.143881,285.004 Z M315.255705,282.682 C315.255705,287.731 312.771705,291.997 307.641705,291.997 C305.724705,291.997 304.104705,291.457 303.024705,290.296 C302.862705,290.107 302.754705,289.864 302.754705,289.594 C302.754705,288.919 303.348705,288.406 303.969705,288.406 C304.239705,288.406 304.482705,288.487 304.671705,288.622 C305.427705,289.243 306.345705,289.621 307.641705,289.621 C310.908705,289.621 312.555705,286.435 312.555705,283.087 C312.555705,282.871 312.555705,282.682 312.528705,282.466 C311.745705,283.708 309.801705,285.139 307.560705,285.139 C304.320705,285.139 301.620705,283.195 301.620705,279.361 C301.620705,276.121 304.104705,273.394 308.100705,273.394 C313.230705,273.394 315.255705,277.741 315.255705,282.682 Z M312.501705,280.414 C312.312705,278.308 311.178705,275.77 308.208705,275.77 C305.616705,275.77 304.320705,277.66 304.320705,279.253 C304.320705,281.71 306.102705,282.844 308.262705,282.844 C309.936705,282.844 311.529705,281.845 312.501705,280.414 Z M320.166529,290.863 C320.166529,292.375 319.329529,293.914 318.168529,294.913 C318.033529,295.021 317.871529,295.102 317.709529,295.102 C317.385529,295.102 316.953529,294.832 316.953529,294.4 C316.953529,294.211 317.034529,294.022 317.169529,293.86 C317.844529,293.293 318.384529,292.456 318.492529,291.754 C318.438529,291.781 318.222529,291.808 318.087529,291.808 C317.250529,291.808 316.656529,291.187 316.656529,290.269 C316.656529,289.378 317.358529,288.622 318.249529,288.622 C319.248529,288.622 320.166529,289.459 320.166529,290.863 Z M334.743353,286.813 C334.743353,289.837 332.232353,292.024 328.182353,292.024 C325.590353,292.024 323.268353,291.025 322.107353,289.648 C321.918353,289.459 321.837353,289.216 321.837353,288.973 C321.837353,288.352 322.377353,287.758 323.025353,287.758 C323.268353,287.758 323.538353,287.839 323.754353,288.028 C324.915353,289.027 326.454353,289.648 328.101353,289.648 C330.585353,289.648 332.097353,288.46 332.097353,286.57 C332.097353,284.545 330.450353,283.681 327.831353,283.681 C326.859353,283.735 325.725353,283.654 325.725353,282.466 C325.725353,281.818 326.211353,281.305 326.886353,281.305 C329.505353,281.332 331.800353,280.9 331.800353,278.632 C331.800353,276.769 330.045353,275.797 327.939353,275.797 C326.400353,275.797 325.077353,276.31 323.916353,277.282 C323.727353,277.444 323.484353,277.525 323.241353,277.525 C322.674353,277.525 322.080353,277.039 322.080353,276.391 C322.080353,276.094 322.215353,275.77 322.431353,275.581 C323.862353,274.258 325.752353,273.421 328.182353,273.421 C331.827353,273.421 334.473353,275.203 334.473353,278.254 C334.473353,280.765 332.340353,282.088 330.558353,282.412 C332.259353,282.574 334.743353,283.978 334.743353,286.813 Z M349.725176,290.485 C349.725176,291.187 349.212176,291.7 348.564176,291.7 L337.899176,291.7 C337.251176,291.7 336.657176,291.16 336.657176,290.404 C336.657176,289.999 336.846176,289.621 337.170176,289.351 C343.596176,284.464 346.755176,281.602 346.755176,278.848 C346.755176,276.742 344.973176,275.797 343.218176,275.797 C341.517176,275.797 340.113176,276.364 339.033176,277.309 C338.817176,277.525 338.547176,277.606 338.277176,277.606 C337.656176,277.606 337.062176,277.093 337.062176,276.418 C337.062176,276.175 337.143176,275.905 337.332176,275.689 C338.655176,274.231 340.977176,273.421 343.191176,273.421 C346.404176,273.421 349.455176,275.257 349.455176,278.848 C349.455176,282.358 346.053176,285.517 341.139176,289.324 L348.564176,289.324 C349.212176,289.324 349.725176,289.864 349.725176,290.485 Z" id="$-949,32" fill="#343348"></path>
                <path d="M15.892125,222.655875 C15.892125,223.233 15.421875,223.70325 14.823375,223.70325 C14.224875,223.70325 13.754625,223.233 13.754625,222.655875 L13.754625,212.310375 L9.223125,223.36125 C9.137625,223.553625 8.94525,223.70325 8.667375,223.70325 C8.453625,223.70325 8.239875,223.553625 8.154375,223.36125 L3.64425,212.310375 L3.64425,222.655875 C3.64425,223.233 3.174,223.70325 2.5755,223.70325 C1.998375,223.70325 1.528125,223.233 1.528125,222.655875 L1.528125,210.75 C1.528125,209.93775 2.212125,209.232375 3.067125,209.232375 C3.858,209.189625 4.6275,209.531625 4.92675,210.27975 L8.68875,219.471 L12.472125,210.27975 C12.728625,209.6385 13.369875,209.232375 14.053875,209.232375 C15.01575,209.189625 15.892125,209.8095 15.892125,210.75 L15.892125,222.655875 Z M27.306375,222.76275 C27.306375,223.27575 26.878875,223.70325 26.3445,223.70325 L26.280375,223.70325 C25.895625,223.70325 25.404,223.382625 25.404,222.76275 L25.404,222.42075 C24.570375,223.339875 23.39475,223.8315 22.005375,223.8315 C20.295375,223.8315 18.414375,222.67725 18.414375,220.4115 C18.414375,218.081625 20.295375,217.03425 22.005375,217.03425 C23.416125,217.03425 24.59175,217.483125 25.404,218.40225 L25.404,216.670875 C25.404,215.367 24.33525,214.5975 22.88175,214.5975 C21.919875,214.5975 21.064875,214.89675 20.295375,215.49525 C20.14575,215.602125 19.97475,215.66625 19.825125,215.66625 C19.440375,215.66625 19.03425,215.367 19.03425,214.918125 C19.03425,214.747125 19.098375,214.576125 19.226625,214.4265 C20.209875,213.44325 21.77025,212.994375 23.159625,212.994375 C25.382625,212.994375 27.306375,213.95625 27.306375,216.585375 L27.306375,222.76275 Z M25.404,221.30925 L25.404,219.5565 C24.826875,218.765625 23.800875,218.3595 22.732125,218.3595 C21.34275,218.3595 20.338125,219.2145 20.338125,220.45425 C20.338125,221.65125 21.34275,222.484875 22.732125,222.484875 C23.800875,222.484875 24.826875,222.100125 25.404,221.30925 Z M37.92975,220.668 C37.92975,222.42075 36.47625,223.8315 33.74025,223.8315 C32.3295,223.8315 30.769125,223.425375 29.828625,222.484875 C29.679,222.356625 29.5935,222.185625 29.5935,221.971875 C29.5935,221.523 29.97825,221.181 30.427125,221.181 C30.6195,221.181 30.769125,221.22375 30.91875,221.330625 C31.68825,221.886375 32.757,222.313875 33.82575,222.313875 C35.300625,222.313875 36.070125,221.65125 36.070125,220.71075 C36.070125,218.423625 29.7645,219.919875 29.7645,216.029625 C29.7645,214.405125 31.17525,212.994375 33.6975,212.994375 C35.172375,212.994375 36.47625,213.44325 37.2885,214.234125 C37.41675,214.362375 37.480875,214.533375 37.480875,214.704375 C37.480875,215.131875 37.1175,215.4525 36.73275,215.4525 C36.56175,215.4525 36.412125,215.40975 36.283875,215.302875 C35.62125,214.832625 34.702125,214.512 33.718875,214.512 C32.415,214.512 31.60275,215.131875 31.60275,215.9655 C31.60275,218.038875 37.92975,216.60675 37.92975,220.668 Z M48.595875,222.014625 C48.595875,222.207 48.510375,222.42075 48.339375,222.570375 C47.569875,223.3185 46.5225,223.8315 44.9835,223.8315 C41.884125,223.8315 39.746625,221.501625 39.746625,218.40225 C39.746625,215.32425 41.884125,212.994375 44.9835,212.994375 C46.56525,212.994375 47.7195,213.550125 48.424875,214.362375 C48.53175,214.490625 48.5745,214.64025 48.5745,214.81125 C48.5745,215.2815 48.168375,215.66625 47.698125,215.66625 C47.484375,215.66625 47.270625,215.58075 47.099625,215.431125 C46.5225,214.918125 45.8385,214.683 45.090375,214.683 C43.038375,214.683 41.713125,216.243375 41.713125,218.40225 C41.713125,220.561125 43.038375,222.142875 45.090375,222.142875 C45.859875,222.142875 46.5225,221.886375 47.099625,221.373375 C47.270625,221.245125 47.484375,221.181 47.698125,221.181 C48.147,221.181 48.595875,221.523 48.595875,222.014625 Z M60.75825,218.40225 C60.75825,221.373375 58.770375,223.8315 55.54275,223.8315 C52.3365,223.8315 50.348625,221.373375 50.348625,218.40225 C50.348625,215.431125 52.3365,212.994375 55.54275,212.994375 C58.770375,212.994375 60.75825,215.431125 60.75825,218.40225 Z M58.770375,218.40225 C58.770375,216.43575 57.616125,214.683 55.54275,214.683 C53.49075,214.683 52.315125,216.43575 52.315125,218.40225 C52.315125,220.390125 53.49075,222.142875 55.54275,222.142875 C57.616125,222.142875 58.770375,220.390125 58.770375,218.40225 Z M68.02575,222.826875 C68.02575,223.510875 67.192125,223.8315 66.05925,223.8315 C64.43475,223.8315 63.57975,222.93375 63.57975,221.30925 L63.57975,214.918125 L62.575125,214.918125 C62.104875,214.918125 61.7415,214.55475 61.7415,214.063125 C61.7415,213.61425 62.104875,213.250875 62.575125,213.250875 L63.57975,213.250875 L63.57975,211.22025 C63.57975,210.728625 64.00725,210.301125 64.563,210.301125 C65.076,210.301125 65.5035,210.728625 65.5035,211.22025 L65.5035,213.250875 L66.91425,213.250875 C67.363125,213.250875 67.7265,213.61425 67.7265,214.105875 C67.7265,214.55475 67.363125,214.918125 66.91425,214.918125 L65.5035,214.918125 L65.5035,220.860375 C65.5035,221.65125 65.88825,222.142875 66.508125,222.142875 C66.74325,222.142875 66.99975,222.036 67.2135,222.036 C67.68375,222.036 68.02575,222.378 68.02575,222.826875 Z M78.050625,222.76275 C78.050625,223.27575 77.623125,223.70325 77.08875,223.70325 L77.024625,223.70325 C76.639875,223.70325 76.14825,223.382625 76.14825,222.76275 L76.14825,222.42075 C75.314625,223.339875 74.139,223.8315 72.749625,223.8315 C71.039625,223.8315 69.158625,222.67725 69.158625,220.4115 C69.158625,218.081625 71.039625,217.03425 72.749625,217.03425 C74.160375,217.03425 75.336,217.483125 76.14825,218.40225 L76.14825,216.670875 C76.14825,215.367 75.0795,214.5975 73.626,214.5975 C72.664125,214.5975 71.809125,214.89675 71.039625,215.49525 C70.89,215.602125 70.719,215.66625 70.569375,215.66625 C70.184625,215.66625 69.7785,215.367 69.7785,214.918125 C69.7785,214.747125 69.842625,214.576125 69.970875,214.4265 C70.954125,213.44325 72.5145,212.994375 73.903875,212.994375 C76.126875,212.994375 78.050625,213.95625 78.050625,216.585375 L78.050625,222.76275 Z M76.14825,221.30925 L76.14825,219.5565 C75.571125,218.765625 74.545125,218.3595 73.476375,218.3595 C72.087,218.3595 71.082375,219.2145 71.082375,220.45425 C71.082375,221.65125 72.087,222.484875 73.476375,222.484875 C74.545125,222.484875 75.571125,222.100125 76.14825,221.30925 Z M88.674,220.668 C88.674,222.42075 87.2205,223.8315 84.4845,223.8315 C83.07375,223.8315 81.513375,223.425375 80.572875,222.484875 C80.42325,222.356625 80.33775,222.185625 80.33775,221.971875 C80.33775,221.523 80.7225,221.181 81.171375,221.181 C81.36375,221.181 81.513375,221.22375 81.663,221.330625 C82.4325,221.886375 83.50125,222.313875 84.57,222.313875 C86.044875,222.313875 86.814375,221.65125 86.814375,220.71075 C86.814375,218.423625 80.50875,219.919875 80.50875,216.029625 C80.50875,214.405125 81.9195,212.994375 84.44175,212.994375 C85.916625,212.994375 87.2205,213.44325 88.03275,214.234125 C88.161,214.362375 88.225125,214.533375 88.225125,214.704375 C88.225125,215.131875 87.86175,215.4525 87.477,215.4525 C87.306,215.4525 87.156375,215.40975 87.028125,215.302875 C86.3655,214.832625 85.446375,214.512 84.463125,214.512 C83.15925,214.512 82.347,215.131875 82.347,215.9655 C82.347,218.038875 88.674,216.60675 88.674,220.668 Z" id="Mascotas" fill="#6A7587"></path>
                <path d="M12.4935,287.2275 C12.4935,289.471875 10.99725,291.075 8.34675,291.075 L2.9175,291.075 C2.148,291.075 1.528125,290.455125 1.528125,289.685625 L1.528125,278.20725 C1.528125,277.43775 2.148,276.817875 2.9175,276.817875 L8.17575,276.817875 C10.719375,276.817875 12.215625,278.37825 12.215625,280.451625 C12.215625,282.247125 11.04,283.444125 9.71475,283.722 C11.232375,283.957125 12.4935,285.496125 12.4935,287.2275 Z M10.035375,280.77225 C10.035375,279.596625 9.223125,278.6775 7.791,278.6775 L3.64425,278.6775 L3.64425,282.867 L7.791,282.867 C9.223125,282.867 10.035375,281.96925 10.035375,280.77225 Z M10.31325,286.971 C10.31325,285.774 9.479625,284.726625 7.8765,284.726625 L3.64425,284.726625 L3.64425,289.215375 L7.8765,289.215375 C9.4155,289.215375 10.31325,288.360375 10.31325,286.971 Z M24.891,285.90225 C24.891,288.873375 22.903125,291.3315 19.6755,291.3315 C16.46925,291.3315 14.481375,288.873375 14.481375,285.90225 C14.481375,282.931125 16.46925,280.494375 19.6755,280.494375 C22.903125,280.494375 24.891,282.931125 24.891,285.90225 Z M22.903125,285.90225 C22.903125,283.93575 21.748875,282.183 19.6755,282.183 C17.6235,282.183 16.447875,283.93575 16.447875,285.90225 C16.447875,287.890125 17.6235,289.642875 19.6755,289.642875 C21.748875,289.642875 22.903125,287.890125 22.903125,285.90225 Z M29.2515,290.26275 C29.2515,290.77575 28.824,291.20325 28.289625,291.20325 C27.776625,291.20325 27.349125,290.77575 27.349125,290.26275 L27.349125,277.60875 C27.349125,277.117125 27.776625,276.689625 28.332375,276.689625 C28.824,276.689625 29.2515,277.117125 29.2515,277.60875 L29.2515,290.26275 Z M41.200125,290.26275 C41.200125,290.77575 40.772625,291.20325 40.23825,291.20325 C39.72525,291.20325 39.29775,290.77575 39.29775,290.26275 L39.29775,289.66425 C38.52825,290.540625 37.203,291.3315 35.62125,291.3315 C33.441,291.3315 32.3295,290.241375 32.3295,288.061125 L32.3295,281.54175 C32.3295,281.050125 32.757,280.622625 33.31275,280.622625 C33.804375,280.622625 34.231875,281.050125 34.231875,281.54175 L34.231875,287.3985 C34.231875,289.1085 35.10825,289.642875 36.4335,289.642875 C37.6305,289.642875 38.720625,288.958875 39.29775,288.168 L39.29775,281.54175 C39.29775,281.050125 39.72525,280.622625 40.281,280.622625 C40.772625,280.622625 41.200125,281.050125 41.200125,281.54175 L41.200125,290.26275 Z M53.554875,290.26275 C53.554875,290.77575 53.127375,291.20325 52.593,291.20325 C52.08,291.20325 51.6525,290.77575 51.6525,290.26275 L51.6525,289.600125 C50.861625,290.626125 49.64325,291.3315 48.253875,291.3315 C45.582,291.3315 43.65825,289.300875 43.65825,285.923625 C43.65825,282.6105 45.560625,280.494375 48.253875,280.494375 C49.6005,280.494375 50.818875,281.135625 51.6525,282.247125 L51.6525,277.60875 C51.6525,277.117125 52.08,276.689625 52.63575,276.689625 C53.127375,276.689625 53.554875,277.117125 53.554875,277.60875 L53.554875,290.26275 Z M51.6525,288.12525 L51.6525,283.722 C51.118125,282.888375 49.9425,282.183 48.7455,282.183 C46.82175,282.183 45.62475,283.76475 45.62475,285.923625 C45.62475,288.0825 46.82175,289.642875 48.7455,289.642875 C49.9425,289.642875 51.118125,288.98025 51.6525,288.12525 Z M66.166125,285.56025 C66.166125,286.07325 65.71725,286.522125 65.182875,286.522125 L58.000875,286.522125 C58.1505,288.29625 59.433,289.7925 61.52775,289.7925 C62.404125,289.7925 63.344625,289.49325 64.09275,288.9375 C64.221,288.873375 64.370625,288.830625 64.52025,288.830625 C64.86225,288.830625 65.28975,289.129875 65.28975,289.600125 C65.28975,290.754375 62.63925,291.3315 61.335375,291.3315 C58.257375,291.3315 56.013,289.15125 56.013,285.90225 C56.013,282.90975 58.171875,280.494375 61.164375,280.494375 C63.66525,280.494375 65.37525,282.05475 65.97375,284.36325 C66.05925,284.70525 66.166125,285.154125 66.166125,285.56025 Z M64.327875,285.1755 C64.285125,283.786125 63.344625,282.033375 61.143,282.033375 C59.091,282.033375 58.086375,283.743375 58.000875,285.1755 L64.327875,285.1755 Z M76.83225,289.514625 C76.83225,289.707 76.74675,289.92075 76.57575,290.070375 C75.80625,290.8185 74.758875,291.3315 73.219875,291.3315 C70.1205,291.3315 67.983,289.001625 67.983,285.90225 C67.983,282.82425 70.1205,280.494375 73.219875,280.494375 C74.801625,280.494375 75.955875,281.050125 76.66125,281.862375 C76.768125,281.990625 76.810875,282.14025 76.810875,282.31125 C76.810875,282.7815 76.40475,283.16625 75.9345,283.16625 C75.72075,283.16625 75.507,283.08075 75.336,282.931125 C74.758875,282.418125 74.074875,282.183 73.32675,282.183 C71.27475,282.183 69.9495,283.743375 69.9495,285.90225 C69.9495,288.061125 71.27475,289.642875 73.32675,289.642875 C74.09625,289.642875 74.758875,289.386375 75.336,288.873375 C75.507,288.745125 75.72075,288.681 75.9345,288.681 C76.383375,288.681 76.83225,289.023 76.83225,289.514625 Z M88.738125,285.56025 C88.738125,286.07325 88.28925,286.522125 87.754875,286.522125 L80.572875,286.522125 C80.7225,288.29625 82.005,289.7925 84.09975,289.7925 C84.976125,289.7925 85.916625,289.49325 86.66475,288.9375 C86.793,288.873375 86.942625,288.830625 87.09225,288.830625 C87.43425,288.830625 87.86175,289.129875 87.86175,289.600125 C87.86175,290.754375 85.21125,291.3315 83.907375,291.3315 C80.829375,291.3315 78.585,289.15125 78.585,285.90225 C78.585,282.90975 80.743875,280.494375 83.736375,280.494375 C86.23725,280.494375 87.94725,282.05475 88.54575,284.36325 C88.63125,284.70525 88.738125,285.154125 88.738125,285.56025 Z M86.899875,285.1755 C86.857125,283.786125 85.916625,282.033375 83.715,282.033375 C81.663,282.033375 80.658375,283.743375 80.572875,285.1755 L86.899875,285.1755 Z M98.741625,288.168 C98.741625,289.92075 97.288125,291.3315 94.552125,291.3315 C93.141375,291.3315 91.581,290.925375 90.6405,289.984875 C90.490875,289.856625 90.405375,289.685625 90.405375,289.471875 C90.405375,289.023 90.790125,288.681 91.239,288.681 C91.431375,288.681 91.581,288.72375 91.730625,288.830625 C92.500125,289.386375 93.568875,289.813875 94.637625,289.813875 C96.1125,289.813875 96.882,289.15125 96.882,288.21075 C96.882,285.923625 90.576375,287.419875 90.576375,283.529625 C90.576375,281.905125 91.987125,280.494375 94.509375,280.494375 C95.98425,280.494375 97.288125,280.94325 98.100375,281.734125 C98.228625,281.862375 98.29275,282.033375 98.29275,282.204375 C98.29275,282.631875 97.929375,282.9525 97.544625,282.9525 C97.373625,282.9525 97.224,282.90975 97.09575,282.802875 C96.433125,282.332625 95.514,282.012 94.53075,282.012 C93.226875,282.012 92.414625,282.631875 92.414625,283.4655 C92.414625,285.538875 98.741625,284.10675 98.741625,288.168 Z" id="Boludeces" fill="#6A7587"></path>
            </g>
            <g id="icon_friends" transform="translate(1.288468, 137.226562)">
                <path d="M9.62983235,0 C7.70917244,0 6.15157148,1.55727825 6.15157148,3.47826087 C6.15157148,5.39835165 7.70974157,6.95652174 9.62983235,6.95652174 C11.5499231,6.95652174 13.1080932,5.39835165 13.1080932,3.47826087 C13.1080932,1.55727825 11.5504922,0 9.62983235,0 Z" id="Path" stroke="#5BC0EB" stroke-width="2.5"></path>
                <path d="M21.8813311,0 C19.9606712,0 18.4030702,1.55727825 18.4030702,3.47826087 C18.4030702,5.39835165 19.9612402,6.95652174 21.8813311,6.95652174 C23.8014218,6.95652174 25.3595919,5.39835165 25.3595919,3.47826087 C25.3595919,1.55727825 23.801991,0 21.8813311,0 Z" id="Path" stroke="#5BC0EB" stroke-width="2.5"></path>
                <path d="M5.29041426,12.5017861 C4.00944661,12.8130554 3.36896278,13.7011431 3.36896278,15.166049 C3.36896278,16.9289222 4.29649901,17.8564584 6.15157148,17.9486577 L6.15157148,12.3834403 L6.15157148,12.3604467 C5.8505697,12.3604467 5.56100523,12.4101145 5.29041426,12.5017861 Z M25.1571151,9.610344 C28.1558255,9.610344 30.5876196,12.0720696 30.5876196,15.1109619 L30.5876196,19.2539537 C30.5876196,20.0037498 29.9797896,20.6115798 29.2299935,20.6115798 C28.4801973,20.6115798 27.8723673,20.0037498 27.8723673,19.2539537 L27.8723673,15.1109619 C27.8723673,13.5919283 26.6554521,12.3604467 25.1571151,12.3604467 L25.1571151,30.2558056 C25.1571151,31.0054894 24.5493764,31.6132281 23.7996927,31.6132281 C23.0500089,31.6132281 22.4422702,31.0054894 22.4422702,30.2558056 L22.4422702,23.362095 L19.727018,23.362095 L19.727018,30.2556021 C19.727018,31.0053983 19.119188,31.6132281 18.3693919,31.6132281 C17.6195957,31.6132281 17.0117658,31.0053983 17.0117658,30.2556021 L17.0117658,12.3604467 L14.2969209,12.3604467 L14.2969209,30.2556021 C14.2969209,31.0053983 13.6890909,31.6132281 12.9392947,31.6132281 C12.1894985,31.6132281 11.5816686,31.0053983 11.5816686,30.2556021 L11.5816686,23.362095 L8.86641642,23.362095 L8.86641642,30.2558056 C8.86641642,31.0054894 8.25867768,31.6132281 7.50899395,31.6132281 C6.75931022,31.6132281 6.15157148,31.0054894 6.15157148,30.2558056 L6.15157148,20.6115798 C3.15123203,20.6115798 0.721067053,18.1486165 0.721067053,15.1109619 C0.721067053,12.0733072 3.15286111,9.610344 6.15157148,9.610344 L25.1571151,9.610344 Z M8.87109375,12.26396 L8.87109375,20.611786 L11.6537024,20.611786 L11.6537024,12.26396 L8.87109375,12.26396 Z M19.7141645,12.3834403 L19.7141645,20.7312664 L22.4967731,20.7312664 L22.4967731,12.3834403 L19.7141645,12.3834403 Z" id="Combined-Shape" fill="#5BC0EB" fill-rule="nonzero"></path>
            </g>
            <g id="icon_delivery" transform="translate(0.788468, 71.542969)" fill="#FA7921" stroke="#FA7921" stroke-width="0.5">
                <path d="M24.185,20 L25.26,20 C26.9742963,19.9993646 28.6233768,19.3428094 29.869,18.165 C29.949,18.433 30,18.711 30,19 C30,20.654 28.654,22 27,22 C25.7329129,21.9964111 24.6053833,21.1953244 24.185,20 Z M7,22 C5.73291295,21.9964111 4.60538332,21.1953244 4.185,20 L9.815,20 C9.39461668,21.1953244 8.26708705,21.9964111 7,22 Z M3,9 C2.448,9 2,8.551 2,8 L2,3 C2,2.449 2.448,2 3,2 L8,2 C8.552,2 9,2.449 9,3 L9,9 L3,9 Z M26,5 L26,6 C26,6.551 25.552,7 25,7 L23.53,7 L22.78,4 L25,4 C25.552,4 26,4.449 26,5 Z M32,12.738 L31.572,12.44 C30.2324787,11.5009867 28.6358667,10.9981167 27,11 C26.182,11 25.384,11.135 24.624,11.374 L24.03,9 L25,9 C26.654,9 28,7.654 28,6 L28,5 C28,3.346 26.654,2 25,2 L22.203,2 C21.6261169,0.779260284 20.3971849,0.000469417971 19.047,0 L17,0 L17,2 L19.047,2 C19.7364928,1.99938569 20.3376026,2.46888669 20.504,3.138 L22.774,12.219 C21.3333333,13 19.3261938,16.6182645 18.6666667,18 L21.3333333,17.4983333 C22.3324085,15.408666 23.53,13 27,13 C28.05,13 29.066,13.272 29.971,13.791 C29.6972683,16.1867077 27.671293,17.9967968 25.26,18 L2.044,18 C2.194,16.302 2.735,14.795 3.629,13.598 C4.897,11.898 6.755,11 9,11 L12.639,11 C12.937,11 13.209,11.125 13.402,11.354 C13.5942651,11.5767963 13.6764756,11.8740754 13.626,12.164 L13.014,18.5016667 L14.986,17.4983333 L15.599,12.493 C15.7439354,11.6230308 15.498714,10.7333586 14.928527,10.0604994 C14.35834,9.38764026 13.5209596,8.9997691 12.639,9 L11,9 L11,3 C11,1.346 9.654,0 8,0 L3,0 C1.346,0 0,1.346 0,3 L0,8 C0,9.654 1.346,11 3,11 L3.345,11 C2.861,11.41 2.418,11.875 2.025,12.401 C0.7,14.177 0,16.458 0,19 L0,20 L2.102,20 C2.57957918,22.3261067 4.62537491,23.996826 7,24 C9.37462509,23.996826 11.4204208,22.3261067 11.898,20 L22.102,20 C22.5795792,22.3261067 24.6253749,23.996826 27,24 C29.757,24 32,21.757 32,19 C32,18.067 31.725,17.162 31.23,16.377 C31.72,15.444 32,14.385 32,13.26 L32,12.738 Z" id="Shape"></path>
            </g>
            <g id="icon_mascota" transform="translate(0.788468, 204.166667)" fill="#5BC0EB">
                <path d="M2.36363636,16.0909091 C2.36363636,17.272 2.49854545,18.3930909 2.73127273,19.4592727 C2.01272727,19.8301818 1.31745455,20.2934545 0.552363636,20.8581818 C0.0472727273,21.2309091 -0.0596363636,21.9425455 0.312727273,22.4472727 C0.682909091,22.9483636 1.39418182,23.0614545 1.90181818,22.6869091 C2.44181818,22.2883636 2.92436364,21.9625455 3.40109091,21.688 C3.68581818,22.3974545 4.03090909,23.0647273 4.42290909,23.6952727 C3.59454545,24.0269091 2.71818182,24.5425455 1.636,25.4443636 C1.15381818,25.8472727 1.08872727,26.5629091 1.49054545,27.0458182 C1.89345455,27.5290909 2.60872727,27.5916364 3.09090909,27.1912727 C4.23418182,26.2385455 5.01090909,25.8370909 5.88109091,25.5978182 C8.29927273,28.1934545 11.8152727,29.7272727 16,29.7272727 C20.1847273,29.7272727 23.7007273,28.1934545 26.1189091,25.5981818 C26.9890909,25.8374545 27.7658182,26.2389091 28.9090909,27.1916364 C29.3912727,27.592 30.1065455,27.5294545 30.5094545,27.0461818 C30.9112727,26.5632727 30.8461818,25.8476364 30.364,25.4447273 C29.2821818,24.5429091 28.4054545,24.0276364 27.5770909,23.6956364 C27.9687273,23.0650909 28.3141818,22.3974545 28.5989091,21.6883636 C29.0756364,21.9629091 29.5581818,22.2887273 30.0981818,22.6872727 C30.6058182,23.0618182 31.3170909,22.9487273 31.6872727,22.4476364 C32.0596364,21.9425455 31.9523636,21.2312727 31.4476364,20.8585455 C30.6825455,20.2938182 29.9876364,19.8305455 29.2687273,19.4596364 C29.5014545,18.3934545 29.6363636,17.2723636 29.6363636,16.0912727 C29.6363636,14.1116364 29.2923636,12.2810909 28.6585455,10.6436364 C30.664,6.86254545 31.7061818,3.91090909 31.9058182,1.40872727 C31.9309091,1.09236364 31.8225455,0.780727273 31.608,0.547636364 C31.3923636,0.314545455 31.0894545,0.181818182 30.7727273,0.181818182 C27.8658182,0.181818182 25.0716364,1.37418182 22.252,3.78836364 C20.4167273,2.93309091 18.3134545,2.45454545 16,2.45454545 C13.6865455,2.45454545 11.5832727,2.93345455 9.748,3.78836364 C6.92909091,1.37381818 4.13490909,0.181818182 1.22727273,0.181818182 C0.910545455,0.181818182 0.607636364,0.314545455 0.392363636,0.547636364 C0.177454545,0.78 0.0694545455,1.09236364 0.0945454545,1.40872727 C0.294181818,3.91018182 1.33636364,6.86181818 3.34181818,10.6436364 C2.70727273,12.2810909 2.36363636,14.1112727 2.36363636,16.0909091 Z M29.4465455,2.55781818 C29.1225455,4.144 28.4378182,5.99927273 27.3785455,8.164 C26.5621818,6.91781818 25.5450909,5.84472727 24.3589091,4.98036364 C26.0909091,3.61527273 27.7505455,2.82509091 29.4465455,2.55781818 Z M16,4.72727273 C23.2730909,4.72727273 27.3636364,9.81490909 27.3636364,16.0909091 C27.3636364,16.9534545 27.2712727,17.8149091 27.1050909,18.6596364 C26.5258182,18.5225455 25.8963636,18.424 25.1814545,18.3669091 C24.5429091,18.3225455 24.008,18.7854545 23.9578182,19.4101818 C23.9083636,20.0349091 24.3749091,20.5832727 25.0003636,20.6330909 C25.544,20.6763636 26.0218182,20.7458182 26.4610909,20.8436364 C26.1418182,21.64 25.7432727,22.4014545 25.2454545,23.1021818 C24.8850909,23.0436364 24.532,22.9872727 24.1407273,22.9247273 C23.5174545,22.8138182 22.9367273,23.24 22.8334545,23.8592727 C22.7512727,24.3527273 23.0076364,24.8127273 23.4258182,25.0363636 C21.6163636,26.5156364 19.1669091,27.4545455 16,27.4545455 C12.8330909,27.4545455 10.3836364,26.5156364 8.57418182,25.036 C8.99236364,24.8127273 9.24872727,24.3527273 9.16654545,23.8589091 C9.06327273,23.2396364 8.47672727,22.8134545 7.85927273,22.9243636 C7.468,22.9869091 7.11490909,23.0429091 6.75454545,23.1018182 C6.25709091,22.4010909 5.85854545,21.6396364 5.53890909,20.8432727 C5.97818182,20.7454545 6.456,20.676 6.99963636,20.6327273 C7.62509091,20.5829091 8.09163636,20.0345455 8.04218182,19.4098182 C7.99236364,18.7850909 7.45527273,18.3254545 6.81854545,18.3665455 C6.10363636,18.4236364 5.47418182,18.5218182 4.89490909,18.6592727 C4.72836364,17.8145455 4.63636364,16.9530909 4.63636364,16.0905455 C4.63636364,9.86181818 8.688,4.72727273 16,4.72727273 Z M2.55345455,2.55781818 C4.252,2.82509091 5.91272727,3.61709091 7.64654545,4.98436364 C6.56581818,5.772 5.45636364,6.90690909 4.62181818,8.16509091 C3.56254545,5.99927273 2.87781818,4.144 2.55345455,2.55781818 Z" id="Shape" fill-rule="nonzero"></path>
                <path d="M8.04545455,13.8181818 C8.04545455,12.5647273 9.06472727,11.5454545 10.3181818,11.5454545 C11.5716364,11.5454545 12.5909091,12.5647273 12.5909091,13.8181818 C12.5909091,15.0709091 11.5716364,16.0909091 10.3181818,16.0909091 C9.06472727,16.0909091 8.04545455,15.0709091 8.04545455,13.8181818 Z" id="Path"></path>
                <path d="M19.4090909,13.8181818 C19.4090909,12.5647273 20.4283636,11.5454545 21.6818182,11.5454545 C22.9352727,11.5454545 23.9545455,12.5647273 23.9545455,13.8181818 C23.9545455,15.0709091 22.9352727,16.0909091 21.6818182,16.0909091 C20.4283636,16.0909091 19.4090909,15.0709091 19.4090909,13.8181818 Z" id="Path"></path>
                <path d="M13.9541818,18.624 C13.4698182,18.1087273 13.8127273,17.2272727 14.4978182,17.2272727 L17.5021818,17.2272727 C18.1872727,17.2272727 18.5305455,18.1083636 18.0458182,18.624 L16.2632727,20.5203636 C16.1178182,20.6752727 15.8818182,20.6752727 15.7363636,20.5203636 L13.9541818,18.624 Z" id="Path"></path>
            </g>
            <g id="icon_viaje" transform="translate(0.788468, 1.871094)" fill="#D13438" fill-rule="nonzero">
                <path d="M26.8963275,2.54996676e-05 C25.5410039,-0.00427187386 24.2405168,0.53475625 23.2858142,1.49651726 L19.5719529,5.20608368 L8.28701532,2.69970996 C7.93208792,2.6199062 7.55995575,2.68853416 7.25686887,2.88968776 L3.25630015,5.55604278 C2.87117899,5.81250913 2.64657753,6.25024241 2.66288245,6.71257427 C2.67847791,7.17282997 2.93056647,7.59244871 3.32964391,7.82244455 L11.9975428,12.775199 L8.91710489,15.8548391 L4.32978609,14.7049735 C3.87533167,14.5910336 3.39440533,14.7238867 3.06293932,15.0549326 L0.395893509,17.7212876 C0.0912688949,18.0224396 -0.0500829967,18.4515708 0.0159529797,18.8747518 C0.0819889561,19.2979328 0.347370775,19.6636275 0.729274236,19.8577045 L8.33035481,23.6639263 L12.1308951,31.2663711 C12.321607,31.6555669 12.6896485,31.9277974 13.117702,31.9962858 C13.188737,32.0012381 13.2600307,32.0012381 13.3310657,31.9962858 C13.6848444,31.9965639 14.0242348,31.8562869 14.2745332,31.6063314 L16.941579,28.9399763 C17.2762247,28.6065152 17.4093871,28.1209152 17.2916288,27.6634589 L16.1414652,23.0639965 L19.2219032,19.9976882 L24.1759408,28.663342 C24.4059962,29.0623161 24.8257236,29.3143393 25.2860986,29.3299308 L25.3327719,29.3299308 C25.7787762,29.3302204 26.1953974,29.1075796 26.4429297,28.7366668 L29.1099755,24.7371342 C29.3111812,24.4341259 29.379827,24.0620901 29.3000025,23.7072546 L26.7929795,12.4252399 L30.503507,8.71234054 C31.964009,7.25334827 32.4014499,5.05838984 31.611808,3.15119077 C30.822166,1.2439917 28.9609891,0.000242284099 26.8963275,2.54996676e-05 Z M6.53009888,6.57925652 L8.26367866,5.42605797 L17.3383021,7.42582424 L13.9578215,10.822094 L6.53009888,6.57925652 Z M26.5729482,23.7305852 L25.4194509,25.463716 L21.1755142,18.0379172 L24.5593286,14.6649781 L26.5729482,23.7305852 Z M28.6199059,6.82922731 L13.7211212,21.7208201 C13.3864755,22.0542813 13.2533131,22.5398813 13.3710714,22.9973376 L14.5212349,27.5968 L13.6977845,28.4133712 L10.524,22.080778 C10.3933839,21.8236886 10.1844046,21.6147633 9.92724849,21.4841811 L3.59301468,18.3112186 L4.41979888,17.4879815 L8.99711626,18.6245153 C9.45157069,18.7384552 9.93249702,18.6056021 10.263963,18.2745562 L25.1694153,3.37963049 C26.1275513,2.4590702 27.6463104,2.47415478 28.5859633,3.41356425 C29.5256162,4.35297373 29.5407046,5.8713395 28.6199059,6.82922731 Z" id="Shape"></path>
            </g>
            <g id="icon_boludeces" transform="translate(8.121801, 270.000000)" fill-rule="nonzero">
                <path d="M17.2820519,20.9230769 C17.2820519,22.2825847 16.179898,23.3846153 14.8205135,23.3846153 L12.358975,23.3846153 L12.358975,28.3076923 C12.358975,30.3469539 10.7057319,32 8.66666728,32 C6.62760267,32 4.97435959,30.3469539 4.97435959,28.3076923 L4.97435959,23.3846153 L2.51282113,23.3846153 C1.15344636,23.3846153 0.0512826667,22.2825847 0.0512826667,20.9230769 L0.0512826667,8.61538461 C0.0512826667,3.85723077 3.90825497,0 8.66666728,0 C13.4250673,0 17.2820519,3.85723077 17.2820519,8.61538461 L17.2820519,20.9230769 Z M14.8205135,14.0606728 L14.8205135,8.61538461 C14.8205135,5.21672616 12.0651042,2.46153847 8.66666728,2.46153847 C5.26823036,2.46153847 2.51282113,5.21672616 2.51282113,8.61538461 L2.51282113,14.0606728 C3.11317805,13.920722 3.74959651,14.0108267 4.29226728,14.3208944 L4.42568267,14.3970544 C5.0651042,14.7625559 5.83493805,14.8223959 6.52303651,14.5601436 L7.79047036,14.0774236 C8.35476575,13.8623959 8.97856883,13.8623959 9.5428642,14.0774236 L10.8102981,14.5601436 C11.4983965,14.8223959 12.2682304,14.7625559 12.9076519,14.3970544 L13.0410673,14.3208944 C13.5837135,14.0108267 14.2201443,13.920722 14.8205135,14.0606728 Z M2.51282113,16.5221744 L2.51282113,20.9230769 L14.8205135,20.9230769 L14.8205135,16.5221744 C14.2201443,16.3822359 13.5837135,16.4723283 13.0410673,16.782482 L12.9076519,16.8585436 C12.2682304,17.224082 11.4983965,17.2838975 10.8102981,17.0217436 L9.5428642,16.5389128 C8.97856883,16.3238975 8.35476575,16.3238975 7.79047036,16.5389128 L6.52303651,17.0217436 C5.83493805,17.2838975 5.0651042,17.224082 4.42568267,16.8585436 L4.29226728,16.782482 C3.74959651,16.4723283 3.11317805,16.3822359 2.51282113,16.5221744 Z" id="Shape" fill="#08C16E"></path>
                <path d="M7.43589805,28.3076923 L7.43589805,23.3846153 L9.89743651,23.3846153 L9.89743651,28.3076923 C9.89743651,28.9874461 9.34635959,29.5384616 8.66666728,29.5384616 C7.98697497,29.5384616 7.43589805,28.9874461 7.43589805,28.3076923 Z" id="Shape-path" fill="#FFFFFF"></path>
            </g>
        </g>
    </g>
</svg>